# xmcd
#
# Track frame offsets:
#	150
#	21545
#	41087
#	63751
#	79766
#	102145
#	119651
#	138613
#	156507
#	169284
#	200746
#	215045
#	230557
#	247075
#	271888
#
# Disc length: 3951 seconds
#
# Revision: 1
# Processed by: cddbd v1.4PL0 Copyright (c) Steve Scherf et al.
# Submitted via: MusicWizard 6.0.2
#
DISCID=ea0f6d0f
DTITLE=Various Artist - Blue Rose Nuggets 1
DYEAR=2002
DGENRE=Rock
TTITLE0=Farmer Not So John - Paperthin
TTITLE1=Say ZuZu - Lonely
TTITLE2=Rainravens - Coyote Moon
TTITLE3=Red Star Belgrade - Drowning
TTITLE4=Bottle Rockets - Stoned Faces Don't Lie
TTITLE5=Elliott Murphy, Ian Matthews and Oliver Durand - Girl With The Clouds In Her Eyes
TTITLE6=Shakin' Apostels - Treasure Of The Orient
TTITLE7=Todd Thibaud - Johanna's Dreams
TTITLE8=John Cate Band - Still In Love With Her
TTITLE9=Steve Wynn and Miracle 3 - Good And Bad
TTITLE10=Big Whiskey - Strange Town
TTITLE11=Reto Burrell - Hey You
TTITLE12=Big In Iowa - My Pillow
TTITLE13=Slobberbone - Down Town Again
TTITLE14=Hardpan - Closer To The Border
EXTD=submitted by Francesco W. Magni
EXTT0=
EXTT1=
EXTT2=
EXTT3=
EXTT4=
EXTT5=
EXTT6=
EXTT7=
EXTT8=
EXTT9=
EXTT10=
EXTT11=
EXTT12=
EXTT13=
EXTT14=
PLAYORDER=
